<svg id="Layer_1" data-name="Layer 1" xmlns="http://www.w3.org/2000/svg" viewBox="0 0 7.86 7.86"><defs><style>.cls-1{fill:#fff;}.cls-2{fill:none;}</style></defs><title>favicon_svg</title><path class="cls-1" d="M6.72,1.24V1.17c0-.81-.77-1-1.38-1V.28c.37,0,.65.12.65.4a.43.43,0,0,1-.45.41h0A5.18,5.18,0,0,1,4.17.76,4.25,4.25,0,0,0,2.76.4,1.32,1.32,0,0,0,1.39,1.67v0a.93.93,0,0,0,.6.89L2,2.5a.51.51,0,0,1-.2-.41.52.52,0,0,1,.57-.44A6.36,6.36,0,0,1,3.89,2a11,11,0,0,0,1.49.33V3.59l-.6.52v0l.6.53V6.41a1.76,1.76,0,0,1-1,.24A2,2,0,0,1,2.8,6L4.46,5.2V2.42l-2,.89A2,2,0,0,1,3.49,2.18l0-.13a3.07,3.07,0,0,0-2.3,2.83A2.82,2.82,0,0,0,4,7.7,2.62,2.62,0,0,0,6.63,5.11v0H6.55a2.62,2.62,0,0,1-1,1.25V4.68l.65-.53v0L5.5,3.59V2.34A1.17,1.17,0,0,0,6.72,1.24ZM2.28,4.31a2.67,2.67,0,0,1,.08-.84L3.2,3.1V5.61l-.48.24A2.36,2.36,0,0,1,2.28,4.31Z"/><rect class="cls-2" width="7.86" height="7.86"/></svg>