<svg id="Layer_1" data-name="Layer 1" xmlns="http://www.w3.org/2000/svg" viewBox="0 0 184 25"><title>svg</title><path d="M13.8,2.9c0-2-1.9-2.5-3.4-2.5V.7c.9,0,1.6.3,1.6,1a1.06,1.06,0,0,1-1.2,1,13,13,0,0,1-3.3-.8A10.63,10.63,0,0,0,4,1,3.27,3.27,0,0,0,.6,4.2,2.32,2.32,0,0,0,2.1,6.4l.1-.2a1.2,1.2,0,0,1-.5-1A1.27,1.27,0,0,1,3.1,4.1,14.78,14.78,0,0,1,6.8,5a28.26,28.26,0,0,0,3.7.8V8.9L9,10.2v.1l1.5,1.3v4.3a4.62,4.62,0,0,1-2.5.6,4.93,4.93,0,0,1-3.9-1.6l4.1-2V6l-5,2.2A5.1,5.1,0,0,1,5.8,5.4l-.1-.3a7.59,7.59,0,0,0-5.7,7,7,7,0,0,0,7,7,6.51,6.51,0,0,0,6.6-6.5h-.2a6.7,6.7,0,0,1-2.6,3.1V11.6l1.6-1.3v-.1L10.8,8.9V5.8A2.86,2.86,0,0,0,13.8,2.9Zm-8.7,11-1.2.6a5.93,5.93,0,0,1-1.1-3.8A7.14,7.14,0,0,1,3,8.6l2.1-.9Zm10.6,2.3-1.3,1,.2.2.6-.5,2.2,2,3-2-.1-.2-.8.5-1-1V9.4l.8-.6L21,10.2v6.1c0,3.8-.8,4.4-2.5,5v.3c2.8.1,5.4-.8,5.4-5.7V9.3l.9-.7-.2-.2-.8.6L21.3,6.9,18.5,9V.8h-.2L14.8,3.2v.2a1.41,1.41,0,0,1,1,1.5ZM34,15.1,31.5,17,29,15V13.8l4.7-3.2v-.1L31.3,6.9,26.1,9.7v6.6l-1,.8.2.2.9-.7,3.4,2.5,4.5-3.6Zm-5-1.7V8.5l.2-.1,2.2,3.5ZM53.1,2a2.92,2.92,0,0,0-.2-.9h-.2A1.56,1.56,0,0,1,51,2.3a2.64,2.64,0,0,1-1.9-.9L46.2,4.7l.2.2,1-.9a3.65,3.65,0,0,0,2.5,1v8.3L44,3.2a3.15,3.15,0,0,0-2.6-1.9c-1.6,0-3,1.4-2.8,3.6h.3c.1-.6.4-1.3,1.1-1.3.5,0,1,.5,1.3,1V7.9c-1.8,0-3,.8-3,2.3a2.29,2.29,0,0,0,1.6,2.3v-.2a.91.91,0,0,1-.3-.7c0-.5.4-.9,1.1-.9h.5v4.2c-2.1,0-3.8,1.2-3.8,3.2s1.6,2.8,3.4,2.7v-.2c-1.1-.1-1.6-.6-1.6-1.3A1.24,1.24,0,0,1,40.6,18a2.72,2.72,0,0,1,2,1.1l2.9-3.2-.2-.2-.7.8a4.8,4.8,0,0,0-3-1.5V5l8,14h.6V5A3.06,3.06,0,0,0,53.1,2Zm7.3,13.1L57.9,17l-2.5-2V13.8l4.7-3.2v-.1L57.7,6.9,52.5,9.7v6.6l-1,.8.2.2.9-.7L56,19.1l4.5-3.6Zm-5-1.7V8.5l.2-.1,2.2,3.5ZM76.7,8l-.7.5L74.1,6.9l-2.2,2,.9.9v7.5l-2.4-1.5V9.6l.8-.5L68.9,6.9l-2.2,2,.9.9V17l-.3.2-2.1-1.5v-6a2.37,2.37,0,0,0-1.5-2.3c-.7-.5-1.1-.8-1.1-1.5s.6-.9.9-1.1V4.6c-.8,0-2.9.8-2.9,2.7a2.39,2.39,0,0,0,1,1.9,2.35,2.35,0,0,1,1,1.8v5.8l-1.1.8.2.2,1-.8L65,19l2.5-1.7L70.3,19l5.3-3.1V9.2l1.3-1L76.7,8ZM95.3,2.5l-1,.9-2.2-2L88.8,3.8V1.6h-.3l.1,16.2a10.8,10.8,0,0,1-1.9-.4L86.5,3.9A2.38,2.38,0,0,0,84,1.5a2.91,2.91,0,0,0-3,2.8h.3c.1-.6.4-1.1,1-1.1s1.1.4,1.1,1.7V8.8c-1.8.1-2.9,1.1-2.9,2.4,0,.8.4,2,1.6,2V13a.79.79,0,0,1-.5-.7c0-.6.5-.8,1.3-.8h.4v6.2a2.81,2.81,0,0,0-2.1,2.8c0,1.7,1.3,2.9,3.3,2.9a15.18,15.18,0,0,0,3.8-.5,22.11,22.11,0,0,1,2.9-.5c.8,0,1.1.4,1.1.9,0,.7-.3,1-.7,1.1v.2a2.82,2.82,0,0,0,2.6-2.8c0-1.5-1.5-2.4-3.1-2.4a31.92,31.92,0,0,0-3.7.5,23.24,23.24,0,0,1-3.2.5c-.7,0-1.5-.3-1.5-1.3,0-.8.7-1.5,2.4-1.5a12,12,0,0,1,3.1.4,14.46,14.46,0,0,0,3.3.6c1.5,0,2.8-.5,2.8-2.6V3.7l1.2-1-.2-.2ZM91.2,8.6a1.74,1.74,0,0,1-1.2.6,1.56,1.56,0,0,1-1.2-.6V4.2l1-.7,1.4,1.3Zm0,3a1.69,1.69,0,0,0-2.4,0V9a1.69,1.69,0,0,0,2.4,0Zm0,4.7a1.52,1.52,0,0,1-1.6,1.6h-.8V12a1.91,1.91,0,0,1,1.2-.5,2.2,2.2,0,0,1,1.2.5Zm13.7-7.1-3.2-2.3L96.8,9.7v6.5l-1,.8.1.2.8-.6L99.9,19l5-3Zm-5.4,6.3V8.3l2.5,1.8v7.1Zm14.9-8.4h-.2a1.8,1.8,0,0,1-.9.4,1.43,1.43,0,0,1-1.1-.5H112l-1.7,1.9L108.6,7l-3,2,.1.2.8-.5,1,1.1v6.3l-1.3,1,.2.2.6-.5,2.4,2,3.1-2.1-.1-.2-.9.5-1.2-1V9a2.74,2.74,0,0,0,1.8,1c1.4.1,2.2-1.3,2.3-2.9Zm12,9.6L123,19l-4.6-7,3.3-5.1h.2a2.49,2.49,0,0,0,1.7.8,1.87,1.87,0,0,0,1.5-.8h.2c-.1,2-1.5,3.2-2.5,3.2a4,4,0,0,1-2.1-.8l-.3.5,5,7.4,1-.6Zm-11-.5-1.3,1,.2.2.6-.5,2.2,2,3-2-.2-.2-.8.5-1-1V.8H118l-3.6,2.4v.2a1.33,1.33,0,0,1,1,1.5ZM143,2.9c0-2-1.9-2.5-3.4-2.5V.7c.9,0,1.6.3,1.6,1a1.06,1.06,0,0,1-1.2,1,13,13,0,0,1-3.3-.8,13.28,13.28,0,0,0-3.5-.8,3.27,3.27,0,0,0-3.4,3.2,2.32,2.32,0,0,0,1.5,2.2l.1-.2a1.05,1.05,0,0,1-.6-1,1.27,1.27,0,0,1,1.4-1.1,14.78,14.78,0,0,1,3.7.9,28.26,28.26,0,0,0,3.7.8V9l-1.5,1.3v.1l1.5,1.3V16a4.62,4.62,0,0,1-2.5.6,4.93,4.93,0,0,1-3.9-1.6l4.1-2V6l-5,2.2a6.69,6.69,0,0,1,2.6-2.9l-.1-.2a7.47,7.47,0,0,0-5.7,6.9,7,7,0,0,0,7,7,6.51,6.51,0,0,0,6.6-6.5h-.2a6.7,6.7,0,0,1-2.6,3.1V11.5l1.6-1.3v-.1L140,8.8v-3A2.86,2.86,0,0,0,143,2.9Zm-8.7,11-1.2.6a5.93,5.93,0,0,1-1.1-3.8,7.11,7.11,0,0,1,.3-2.1l2.1-.9Zm12.2-12h-.1l-2,1.7v.1l1.7,1.9h.2l2-1.7V3.8l-1.8-1.9Zm3,14.8-.8.5-1-1V9.3l1-.7-.2-.2-.7.6L146,6.9l-2.9,2,.2.3.7-.5.9,1.1v6.5l-1.3,1,.1.2.7-.5,2.2,2,3-2-.1-.3Zm16.7-.1-.7.5-1.1-1V9.3l1-.8-.2-.2-.8.7-2.3-2.1-3,2.1-2.3-2.1L154,9l-1.8-2.1-2.9,2,.1.3.7-.5,1,1.1v6.5l-.8.8,2.3,1.9,2.2-2-.9-.9V9.3l.9-.6,1.5,1.4v6l-.8.8,2.3,1.9,2.2-2-.9-.9V9.3l.8-.5,1.6,1.4v6l-.7.7,2.3,2.1,3.1-2.1v-.3Zm8.7-1.5L172.4,17l-2.5-2V13.8l4.7-3.2v-.1l-2.4-3.6L167,9.7v6.8l3.5,2.5,4.5-3.6Zm-5-1.7V8.5l.2-.1,2.2,3.5Zm14.1-.9L182.1,11a5,5,0,0,0,1.8-3.6V6.8h-.2a1.44,1.44,0,0,1-1.4,1,2.23,2.23,0,0,1-1.8-1L176,9.3v3.6l1.7,1.3c-1.7,1.5-2,2.5-2,3.3a2,2,0,0,0,1.3,2l.1-.2a.89.89,0,0,1-.4-.8c0-.3.4-.8,1.2-.8a2.64,2.64,0,0,1,1.9,1l4.3-2.6V12.5Zm-1.1-3a11,11,0,0,1-3.1,3l-1.1-.9V8.1a3,3,0,0,0,2.6,1.8A2.73,2.73,0,0,0,182.9,9.5Zm-1.7,8a3.32,3.32,0,0,0-2.9-1.9,3.49,3.49,0,0,0-1.9.5,11.16,11.16,0,0,1,3.5-3.2l1.2,1,.1,3.6Z"/></svg>